<?xml version="1.0" encoding="UTF-8" standalone="no"?>
<!-- Created with Inkscape (http://www.inkscape.org/) -->

<svg
   version="1.1"
   id="svg9"
   width="38.400002"
   height="67.199997"
   viewBox="0 0 38.400002 67.199997"
   sodipodi:docname="abaixopeso.svg"
   inkscape:version="1.1.1 (3bf5ae0d25, 2021-09-20)"
   xmlns:inkscape="http://www.inkscape.org/namespaces/inkscape"
   xmlns:sodipodi="http://sodipodi.sourceforge.net/DTD/sodipodi-0.dtd"
   xmlns="http://www.w3.org/2000/svg"
   xmlns:svg="http://www.w3.org/2000/svg">
  <defs
     id="defs13" />
  <sodipodi:namedview
     id="namedview11"
     pagecolor="#ffffff"
     bordercolor="#666666"
     borderopacity="1.0"
     inkscape:pageshadow="2"
     inkscape:pageopacity="0.0"
     inkscape:pagecheckerboard="0"
     showgrid="false"
     inkscape:zoom="7.4107146"
     inkscape:cx="27.730119"
     inkscape:cy="33.599999"
     inkscape:window-width="1350"
     inkscape:window-height="728"
     inkscape:window-x="0"
     inkscape:window-y="0"
     inkscape:window-maximized="0"
     inkscape:current-layer="g15" />
  <g
     inkscape:groupmode="layer"
     inkscape:label="Image"
     id="g15">
    <path
       style="fill:#272727;stroke-width:0.32"
       d="M 12.08675,66.255419 C 10.651961,65.126814 10.592766,64.541246 10.494075,50.50038 10.433962,41.948079 10.282609,37.038582 10.072594,36.828694 9.8490718,36.605305 9.1878808,37.337763 7.9925928,39.132889 c -2.70722,4.065798 -5.641047,4.883948 -7.36642104,2.054256 -1.136309,-1.8636 -0.871186,-2.870464 2.12747404,-8.079571 1.514351,-2.63065 3.976609,-6.942998 5.471684,-9.582998 1.9324582,-3.412329 3.1838792,-5.234543 4.3287082,-6.303098 1.610388,-1.503099 1.610388,-1.503099 0.305585,-2.985434 C 8.0572138,8.7802204 11.276844,0.65571753 18.47014,0.07830883 26.249511,-0.54614426 30.534723,8.8342191 25.047023,14.475161 c -1.15824,1.190584 -1.15824,1.190584 0.342566,2.511647 0.825444,0.726585 1.84471,1.918822 2.265036,2.649415 0.420326,0.730594 2.93805,5.099963 5.594943,9.709709 5.299021,9.193875 5.641277,10.181869 4.173546,12.047786 -1.996528,2.538179 -4.605962,1.752054 -7.2193,-2.174903 -1.306214,-1.962793 -1.931086,-2.654688 -2.176183,-2.40959 -0.230712,0.230714 -0.382616,4.888304 -0.461743,14.157743 -0.117919,13.81392 -0.117919,13.81392 -1.169763,14.865763 -1.645685,1.645686 -4.535658,1.389229 -5.831357,-0.517479 -0.500513,-0.736537 -0.58262,-1.973055 -0.724487,-10.910677 -0.155767,-9.813334 -0.176931,-10.08 -0.8,-10.08 -0.623069,0 -0.644233,0.266666 -0.8,10.08 -0.167832,10.573413 -0.222857,10.967394 -1.673678,11.983589 -1.022238,0.716004 -3.493956,0.642762 -4.479853,-0.132745 z m 3.735386,-2.002048 c 0.425726,-0.607808 0.498145,-2.203466 0.498145,-10.976 0,-11.608085 -0.135461,-11.032796 2.597828,-11.032796 3.100379,0 2.841549,-0.970467 2.84689,10.674236 0.0052,11.236042 0.08594,11.802176 1.710996,11.98975 2.106781,0.243178 2.124122,0.149907 2.125773,-11.433583 8.18e-4,-5.73672 0.151469,-12.806403 0.334779,-15.710403 0.466635,-7.392412 0.955616,-7.747894 3.896431,-2.832649 2.835605,4.739395 3.630424,5.712649 4.66531,5.712649 2.699658,0 2.309028,-1.212435 -3.804023,-11.806899 C 24.46745,18.046045 25.056368,18.849596 22.367484,17.476169 19.749495,16.138954 19.7119,15.601895 22.137081,14.184803 27.840377,10.852229 26.059597,2.459546 19.549268,1.9886313 12.121225,1.4513352 9.8370138,11.676575 16.740848,14.560489 c 1.856207,0.775387 1.534143,1.619607 -1.131972,2.967223 -2.503472,1.265407 -1.985145,0.53852 -8.6117542,12.076864 -5.806485,10.110332 -6.00835304,10.73149 -3.567389,10.977081 1.213469,0.122089 1.860122,-0.612986 4.731147,-5.378077 3.0503722,-5.062757 3.5719742,-4.805917 4.0096402,1.974371 0.162837,2.522643 0.299148,9.486582 0.302914,15.47542 0.0076,12.030563 0.05149,12.311203 1.926847,12.311203 0.591777,0 1.102716,-0.255568 1.421855,-0.711203 z"
       id="path1827" />
    <path
       style="fill:#ffffff;stroke-width:0.13494"
       d="M 13.54695,64.773994 C 12.699038,64.431337 12.584187,62.855257 12.489661,50.265058 12.399699,38.282671 12.201214,34.189442 11.625936,32.453011 11.429859,31.861168 11.352534,31.773416 10.996269,31.738445 10.326417,31.672692 9.8193239,32.327043 7.084337,36.78639 6.4030841,37.89716 5.5133027,39.143109 5.0577202,39.624234 4.2900806,40.43491 4.2116678,40.481926 3.627254,40.481926 c -0.8769252,0 -1.4532216,-0.230616 -1.5511298,-0.620713 -0.221079,-0.880849 0.4741081,-2.290817 5.2493988,-10.646756 4.685169,-8.198242 5.732961,-9.873888 6.640741,-10.619982 0.222651,-0.182993 0.978332,-0.631251 1.679292,-0.996126 2.092646,-1.0893 2.727982,-1.91058 1.997817,-2.582514 -0.166988,-0.153671 -0.725959,-0.483051 -1.242156,-0.731956 -2.834177,-1.366608 -4.215348,-4.279974 -3.506518,-7.396458 0.723215,-3.179735 3.788664,-5.240124 7.082084,-4.7601031 4.324498,0.6303018 6.719192,5.057727 4.871371,9.0064261 -0.519959,1.11113 -1.519435,2.171297 -2.85419,3.027507 -0.57403,0.368224 -1.205182,0.861421 -1.402562,1.095994 -0.651256,0.773974 -0.3141,1.174254 2.08881,2.479892 2.198225,1.194419 2.274252,1.298591 7.243837,9.925512 4.378105,7.600142 5.718889,10.173753 6.001029,11.518864 0.139958,0.667254 0.130484,0.777427 -0.08756,1.018369 -0.373506,0.412718 -1.309977,0.503565 -1.930773,0.187303 -0.665152,-0.338861 -1.76037,-1.804556 -3.548365,-4.748664 -0.773544,-1.273714 -1.620628,-2.5972 -1.88241,-2.94108 -2.35313,-3.091105 -2.716333,-0.52551 -2.974108,21.008581 -0.115797,9.673581 -0.158051,10.346361 -0.685335,10.912333 -0.450869,0.483951 -1.962172,0.289831 -2.349842,-0.301826 -0.442798,-0.675797 -0.496697,-1.665555 -0.603532,-11.082796 -0.111737,-9.849446 -0.141821,-10.310378 -0.70627,-10.821049 -0.236272,-0.21376 -0.487606,-0.239245 -2.027347,-0.205568 -0.966703,0.02114 -1.869744,0.09844 -2.00676,0.171767 -0.741163,0.396659 -0.805609,1.217334 -0.915985,11.664488 -0.108902,10.307545 -0.08408,10.04052 -0.98421,10.589312 -0.461497,0.281367 -1.179267,0.341899 -1.675627,0.141311 z"
       id="path4933" />
  </g>
</svg>
