<?xml version="1.0" encoding="UTF-8" standalone="no"?>
<!-- Created with Inkscape (http://www.inkscape.org/) -->

<svg
   version="1.1"
   id="svg2311"
   width="39.360001"
   height="67.199997"
   viewBox="0 0 39.360001 67.199997"
   sodipodi:docname="normal.svg"
   inkscape:version="1.1.1 (3bf5ae0d25, 2021-09-20)"
   xmlns:inkscape="http://www.inkscape.org/namespaces/inkscape"
   xmlns:sodipodi="http://sodipodi.sourceforge.net/DTD/sodipodi-0.dtd"
   xmlns="http://www.w3.org/2000/svg"
   xmlns:svg="http://www.w3.org/2000/svg">
  <defs
     id="defs2315" />
  <sodipodi:namedview
     id="namedview2313"
     pagecolor="#ffffff"
     bordercolor="#666666"
     borderopacity="1.0"
     inkscape:pageshadow="2"
     inkscape:pageopacity="0.0"
     inkscape:pagecheckerboard="0"
     showgrid="false"
     inkscape:zoom="7.7380956"
     inkscape:cx="45.812306"
     inkscape:cy="25.587691"
     inkscape:window-width="1366"
     inkscape:window-height="706"
     inkscape:window-x="-8"
     inkscape:window-y="-8"
     inkscape:window-maximized="1"
     inkscape:current-layer="g2317" />
  <g
     inkscape:groupmode="layer"
     inkscape:label="Image"
     id="g2317">
    <path
       style="fill:#252525;stroke-width:0.32"
       d="M 13.356968,66.742618 C 10.233974,65.628211 10.24,65.658512 10.24,51.071636 c 0,-6.793401 -0.06261,-12.351638 -0.13913,-12.351638 -0.07652,0 -0.9209302,0.781799 -1.8764628,1.737331 C 5.5419137,43.139822 2.4475239,43.228744 0.73043176,40.672677 -0.74640712,38.474248 -0.51830325,37.795864 4.8416424,28.445862 10.754432,18.131469 11.080363,17.634684 12.569926,16.666386 13.866144,15.823773 14.032935,15.34488 13.255038,14.699282 11.43135,13.185756 10.507733,9.1243366 11.33785,6.2688352 c 2.206964,-7.5916904 12.718337,-8.3718853 16.324006,-1.2116309 1.306586,2.5946606 0.881436,6.4524117 -0.979826,8.8907967 -1.309243,1.715203 -1.324961,1.90918 -0.202029,2.493376 1.494705,0.777609 2.112433,1.681157 7.464726,10.918622 5.853949,10.103267 6.201815,11.083388 4.713344,13.279999 -1.757708,2.593946 -4.857446,2.517805 -7.495365,-0.184118 -0.93212,-0.954736 -1.77305,-1.735882 -1.868734,-1.735882 -0.09568,0 -0.17451,5.652 -0.175167,12.56 -0.0011,11.872249 -0.03524,12.61583 -0.622877,13.579577 -1.9992,3.278755 -7.316202,2.60375 -8.294158,-1.05296 -0.136298,-0.509642 -0.371095,-0.926618 -0.52177,-0.926618 -0.150674,0 -0.385471,0.416976 -0.521769,0.926618 -0.344179,1.286931 -1.784878,2.697158 -3.14004,3.073622 -1.368355,0.380131 -1.183497,0.38969 -2.661223,-0.137619 z M 17.154423,63.48697 C 17.500232,62.659332 17.6,60.354721 17.6,53.194276 c 0,-10.227491 -0.04911,-9.994278 2.104818,-9.994278 2.038585,0 2.009517,-0.143686 2.117255,10.465929 0.09751,9.602329 0.101123,9.64695 0.845393,10.438672 0.964062,1.025523 1.651214,1.188697 2.861964,0.679616 1.59959,-0.672576 1.606447,-0.735879 1.721775,-15.8936 0.07772,-10.214377 0.213858,-14.40406 0.476584,-14.666626 0.693762,-0.693344 1.709864,0.06017 2.992481,2.219129 2.314188,3.895357 4.293568,5.052135 5.898518,3.447184 1.373658,-1.373657 1.147514,-1.961731 -4.538166,-11.80119 -5.601553,-9.693875 -5.978927,-10.169113 -8.075008,-10.169113 -3.192032,0 -4.193207,-2.163168 -1.395126,-3.014347 1.1232,-0.341678 3.235289,-2.881618 3.637118,-4.373897 1.963473,-7.2917804 -8.157293,-11.8438252 -12.191074,-5.4832125 -2.371499,3.7394654 -1.168181,7.4780525 3.268771,10.1557395 2.046563,1.235094 0.890878,2.715717 -2.119724,2.715717 -1.824098,0 -2.888445,1.386007 -8.286174,10.79037 -5.2846402,9.207332 -5.5202783,9.837847 -4.1781928,11.179933 1.60525,1.605248 3.6585368,0.403722 5.9287298,-3.469331 1.2532435,-2.138093 2.267971,-2.890723 2.96227,-2.197139 0.261317,0.261046 0.414107,4.554736 0.527788,14.831785 0.088,7.955411 0.285287,14.658601 0.438416,14.89598 1.036078,1.606131 3.808942,1.32335 4.556007,-0.464627 z"
       id="path2419" />
    <path
       style="fill:#ffffff;stroke-width:0.129231"
       d="m 13.633846,64.69541 c -0.952747,-0.437503 -0.998752,-0.553529 -1.115449,-2.813209 -0.05739,-1.11122 -0.194099,-7.144229 -0.303803,-13.406686 -0.198173,-11.312698 -0.31082,-14.029642 -0.595923,-14.373169 -0.08183,-0.0986 -0.301583,-0.179054 -0.488341,-0.178787 -0.779668,0.0011 -1.4117859,0.671427 -2.9887919,3.16941 -1.3379523,2.119321 -2.8388296,3.420875 -3.9447561,3.420875 -0.6022393,0 -1.5425494,-0.679202 -1.866359,-1.348104 -0.3356387,-0.693336 -0.2405487,-1.237321 0.4943394,-2.827983 1.2029177,-2.60371 7.5471766,-13.57009 9.1722326,-15.854681 1.393444,-1.958976 2.003796,-2.383235 3.619475,-2.515918 1.876808,-0.154127 2.734298,-0.620588 2.734298,-1.487412 0,-0.550285 -0.364177,-0.944029 -1.68,-1.816391 -2.275684,-1.508729 -3.74128,-3.809461 -3.746158,-5.8808195 -0.0037,-1.5886325 0.869124,-3.5214874 2.190595,-4.8508111 1.280535,-1.2881431 2.517131,-1.7902015 4.424277,-1.7962576 3.018585,-0.00959 5.92441,2.1774547 6.694904,5.038852 0.21355,0.7930613 0.183601,2.4568037 -0.05926,3.2922242 -0.459943,1.582146 -2.602256,4.043852 -3.910648,4.493678 -1.217446,0.418559 -1.659949,1.362132 -1.004241,2.141396 0.423231,0.502981 1.27823,0.784458 2.68767,0.884819 1.43349,0.102073 1.93746,0.406892 2.97962,1.802172 1.308331,1.751639 7.163557,11.756643 9.077828,15.511559 1.466655,2.876903 1.538298,3.530262 0.496553,4.528429 -1.503071,1.440195 -3.069707,0.57404 -5.425152,-2.999434 -1.347097,-2.043694 -2.168913,-2.906087 -2.76935,-2.906087 -0.691179,0 -0.77362,0.300912 -0.90675,3.309623 -0.0657,1.484784 -0.155288,6.537761 -0.199086,11.228838 -0.118116,12.650862 -0.253723,14.975963 -0.916926,15.721491 -0.369046,0.414857 -1.205797,0.749413 -1.882289,0.752594 -0.788566,0.0037 -1.592428,-0.577288 -2.036405,-1.471819 l -0.314052,-0.632755 -0.105895,-6.926294 c -0.05824,-3.809461 -0.157888,-7.955603 -0.221434,-9.213645 -0.166874,-3.303669 -0.383652,-3.64756 -2.241445,-3.555757 -1.134676,0.05607 -1.427586,0.229201 -1.664814,0.98402 -0.09747,0.310142 -0.181354,3.244051 -0.251612,8.800627 -0.104937,8.299353 -0.195066,9.995598 -0.56959,10.719848 -0.559304,1.081573 -2.191238,1.593759 -3.36326,1.055564 z"
       id="path81" />
  </g>
</svg>
