<?xml version="1.0" encoding="UTF-8" standalone="no"?>
<!-- Created with Inkscape (http://www.inkscape.org/) -->

<svg
   version="1.1"
   id="svg3006"
   width="45.439999"
   height="67.199997"
   viewBox="0 0 45.439999 67.199997"
   sodipodi:docname="obesidade-2.svg"
   inkscape:version="1.1.1 (3bf5ae0d25, 2021-09-20)"
   xmlns:inkscape="http://www.inkscape.org/namespaces/inkscape"
   xmlns:sodipodi="http://sodipodi.sourceforge.net/DTD/sodipodi-0.dtd"
   xmlns="http://www.w3.org/2000/svg"
   xmlns:svg="http://www.w3.org/2000/svg">
  <defs
     id="defs3010" />
  <sodipodi:namedview
     id="namedview3008"
     pagecolor="#ffffff"
     bordercolor="#666666"
     borderopacity="1.0"
     inkscape:pageshadow="2"
     inkscape:pageopacity="0.0"
     inkscape:pagecheckerboard="0"
     showgrid="false"
     inkscape:zoom="7.4107146"
     inkscape:cx="49.995179"
     inkscape:cy="33.599999"
     inkscape:window-width="1366"
     inkscape:window-height="706"
     inkscape:window-x="-8"
     inkscape:window-y="-8"
     inkscape:window-maximized="1"
     inkscape:current-layer="g3012" />
  <g
     inkscape:groupmode="layer"
     inkscape:label="Image"
     id="g3012">
    <path
       style="fill:#262526;stroke-width:0.32"
       d="M 15.766611,66.571575 C 14.274945,65.894439 13.292634,64.558679 12.965256,62.762253 12.848762,62.123012 11.915686,58.431997 10.891755,54.559998 9.8678235,50.687998 8.8483368,46.176945 8.6262289,44.535438 8.2468933,41.731925 8.1816805,41.563384 7.5511979,41.757041 3.6748729,42.947684 1.9994232,42.386315 0.48268159,39.388689 -0.76419374,36.924421 -0.29024209,35.534283 4.6116277,27.278169 10.420505,17.494402 11.530375,16.463763 16.062824,16.64445 c 0.757446,0.0302 1.515158,0.04155 1.683802,0.02523 0.168645,-0.01632 -0.291693,-0.641676 -1.022972,-1.389676 C 11.971015,10.41869 13.940125,2.3209122 20.326315,0.46439646 28.795344,-1.9976171 34.900482,8.3651606 28.907791,15.030476 c -1.4471,1.609523 -1.4471,1.609523 0.672832,1.609523 4.382202,0 5.386397,0.928474 10.729027,9.92 5.116599,8.611123 5.130349,8.638771 5.130349,10.316303 0,4.014627 -3.480659,6.518022 -7.022633,5.05089 -1.274925,-0.528093 -1.232759,-0.593786 -1.65553,2.579091 -0.197411,1.481542 -1.21256,5.933715 -2.255885,9.893715 -1.043328,3.959999 -2.039376,7.833343 -2.21344,8.607433 -0.993081,4.416345 -6.375845,5.691011 -8.722934,2.065628 -0.851793,-1.315702 -1.022986,-1.324755 -1.662581,-0.08792 -0.999007,1.931868 -3.790609,2.653107 -6.140385,1.586432 z m 3.23723,-1.597831 c 1.418503,-0.539312 1.836632,-1.928339 2.162036,-7.182291 0.350973,-5.666787 0.342409,-5.631455 1.365194,-5.631455 1.177544,0 1.278349,0.356124 1.657128,5.854303 0.378555,5.494928 0.715608,6.457463 2.481464,7.086406 1.074919,0.382855 2.980217,-0.461404 3.381269,-1.498275 1.000979,-2.587907 4.572805,-17.657909 4.936597,-20.828156 0.573881,-5.001039 1.010419,-5.493353 3.153881,-3.556867 1.723428,1.557015 3.542999,1.500356 4.648144,-0.144732 1.339997,-1.994688 1.121815,-2.648304 -3.468473,-10.390545 -5.700375,-9.614578 -6.449507,-10.355833 -10.119563,-10.013118 -3.066698,0.286373 -6.432254,-1.134299 -5.657367,-2.388094 0.102426,-0.165728 0.818671,-0.598607 1.591656,-0.961952 6.739018,-3.167713 4.907203,-13.1713075 -2.420284,-13.2172406 -7.429079,-0.04657 -9.2317,10.3279446 -2.310053,13.2949086 3.130393,1.341843 0.678739,3.244115 -4.24547,3.294118 -4.092622,0.04156 -4.179328,0.125027 -9.7071957,9.344739 -5.1440137,8.579494 -5.400379,9.383424 -3.6256791,11.369657 1.1639509,1.302688 2.5190696,1.321015 4.1117614,0.05561 1.9759958,-1.569946 1.9710806,-1.567936 2.5126578,-1.026359 0.3393255,0.339325 0.6116036,1.589927 0.8348556,3.834576 0.187108,1.881248 0.948327,5.698688 1.748991,8.771021 0.77973,2.992 1.786829,6.951999 2.238,8.799999 1.207174,4.944602 2.250327,6.076688 4.73045,5.133747 z"
       id="path3114" />
    <path
       style="fill:#ffffff;stroke-width:0.13494"
       d="M 16.928249,65.058993 C 16.067052,64.67252 15.395687,63.521148 14.76484,61.348816 14.248849,59.571991 11.388998,48.084695 11.081609,46.554215 10.700284,44.655604 10.430167,42.992395 10.252382,41.448362 10.038334,39.589386 9.7769894,38.651291 9.3734529,38.293456 8.93818,37.907477 8.6615804,38.007791 7.3770937,39.017475 6.1985227,39.943902 5.5125484,40.272657 4.7499252,40.276553 4.0070596,40.280345 3.5665969,40.0469 2.8501803,39.26968 1.1639214,37.440304 1.4441206,36.599388 6.63966,27.896914 c 3.845423,-6.441044 5.069788,-8.101183 6.413354,-8.695991 0.512855,-0.227046 1.149793,-0.318958 3.139756,-0.453079 3.211859,-0.216476 4.552899,-0.551127 5.332463,-1.330691 0.679114,-0.679114 0.352911,-1.345154 -0.990641,-2.022683 -2.042462,-1.029976 -3.245768,-2.278001 -3.948476,-4.095217 -0.365657,-0.945596 -0.49404,-2.8774596 -0.264654,-3.9824118 0.333234,-1.6051768 1.472451,-3.2682141 2.839897,-4.145702 1.97221,-1.265564 5.076638,-1.275475 7.016953,-0.022402 2.309678,1.4916114 3.485395,4.3314844 2.914259,7.0392138 -0.489099,2.318799 -1.677007,3.793229 -4.128717,5.124558 -1.624523,0.882149 -1.873845,1.213602 -1.398245,1.858846 0.769955,1.044598 2.65179,1.556577 5.783787,1.573562 1.96712,0.01067 2.215061,0.03931 2.789297,0.322179 1.624812,0.800394 3.291802,3.127058 7.995404,11.159409 1.969265,3.362916 3.008408,5.443652 3.209854,6.427276 0.195502,0.954594 -0.04705,1.683175 -0.872553,2.620996 -1.241837,1.410801 -2.496267,1.320026 -4.527936,-0.32766 -1.26199,-1.023476 -1.786209,-1.086305 -2.212101,-0.265127 -0.259014,0.499415 -0.414872,1.275003 -0.914001,4.548294 -0.588525,3.859547 -3.140848,14.792904 -4.527701,19.395261 -0.375325,1.245541 -0.731136,1.68547 -1.749901,2.163598 -0.824083,0.386761 -1.530647,0.404409 -2.214908,0.05533 -1.404966,-0.716761 -1.676455,-1.658877 -2.101522,-7.292664 -0.303654,-4.0246 -0.4733,-4.987579 -0.932686,-5.29432 -0.265459,-0.17725 -1.388611,-0.113808 -1.556008,0.08789 -0.231519,0.278963 -0.38391,1.513203 -0.617845,5.004017 -0.364846,5.444301 -0.728156,6.825551 -1.955344,7.433909 -0.80671,0.399913 -1.708348,0.511221 -2.233196,0.275688 z"
       id="path81" />
  </g>
</svg>
