<?xml version="1.0" encoding="UTF-8" standalone="no"?>
<!-- Created with Inkscape (http://www.inkscape.org/) -->

<svg
   version="1.1"
   id="svg2531"
   width="42.880001"
   height="67.199997"
   viewBox="0 0 42.880001 67.199997"
   sodipodi:docname="obesidade-1.svg"
   inkscape:version="1.1.1 (3bf5ae0d25, 2021-09-20)"
   xmlns:inkscape="http://www.inkscape.org/namespaces/inkscape"
   xmlns:sodipodi="http://sodipodi.sourceforge.net/DTD/sodipodi-0.dtd"
   xmlns="http://www.w3.org/2000/svg"
   xmlns:svg="http://www.w3.org/2000/svg">
  <defs
     id="defs2535" />
  <sodipodi:namedview
     id="namedview2533"
     pagecolor="#ffffff"
     bordercolor="#666666"
     borderopacity="1.0"
     inkscape:pageshadow="2"
     inkscape:pageopacity="0.0"
     inkscape:pagecheckerboard="0"
     showgrid="false"
     inkscape:zoom="7.4107146"
     inkscape:cx="48.645781"
     inkscape:cy="33.599999"
     inkscape:window-width="1366"
     inkscape:window-height="706"
     inkscape:window-x="-8"
     inkscape:window-y="-8"
     inkscape:window-maximized="1"
     inkscape:current-layer="g2537" />
  <g
     inkscape:groupmode="layer"
     inkscape:label="Image"
     id="g2537">
    <path
       style="fill:#222222;stroke-width:0.32"
       d="m 14.726581,66.842864 c -1.778274,-0.709507 -3.206443,-2.931907 -3.206778,-4.990118 -2.39e-4,-1.475014 -1.176651,-12.108207 -1.5857148,-14.332748 -0.1618205,-0.88 -0.3874755,-2.716 -0.5014557,-4.08 C 9.2016937,40.67636 9.1509887,40.63252 7.489556,41.759998 3.6160446,44.388635 -1.4123851,39.839755 0.44716516,35.389227 1.3539284,33.219035 9.0121986,20.510804 10.283798,19.066191 c 1.429822,-1.624364 3.302178,-2.746192 4.583454,-2.746192 0.994477,0 1.054807,-0.64207 0.138161,-1.470404 -4.371908,-3.950707 -2.02264,-12.5886618 3.902278,-14.34817333 8.555948,-2.54084327 14.805756,7.14059593 9.208465,14.26462733 -1.120743,1.426441 -1.129228,1.55395 -0.103407,1.55395 2.760078,0 4.938154,2.454573 10.387162,11.705763 4.28856,7.281008 4.319914,7.348582 4.32,9.310771 1.89e-4,4.163734 -3.652294,6.42062 -7.152573,4.419609 -1.907676,-1.09056 -1.815321,-1.200957 -2.21183,2.643856 -0.19512,1.892 -0.719587,6.464 -1.165478,10.16 -0.445893,3.695999 -0.81506,7.238703 -0.820371,7.872678 -0.03775,4.505855 -5.772277,6.2679 -8.862497,2.723174 -0.662054,-0.759427 -1.206897,-1.153498 -1.288462,-0.93191 -0.840977,2.284671 -4.067581,3.586284 -6.492119,2.618924 z m 3.042361,-1.945168 c 1.633145,-0.744108 1.84624,-1.724864 2.002794,-9.217698 0.154882,-7.412842 0.219632,-7.68 1.86135,-7.68 1.359249,0 1.321876,-0.190586 1.540117,7.8539 0.223919,8.253747 0.874523,9.888169 3.689968,9.269795 1.985755,-0.436144 2.292412,-1.212982 2.933881,-7.43223 0.322867,-3.130307 0.822106,-7.275465 1.10942,-9.211465 0.287314,-1.936 0.614895,-5.304858 0.727959,-7.486349 0.271568,-5.23975 0.578706,-5.502323 3.179067,-2.717782 2.5701,2.752128 4.508785,3.002909 5.681594,0.73495 0.918883,-1.776924 0.982653,-1.614668 -3.950134,-10.050818 C 30.614767,18.818067 30.327089,18.525421 25.992065,18.224861 21.793286,17.933746 21.253922,16.776599 24.50294,15.030102 29.501697,12.343041 29.447337,5.3085946 24.4087,2.835054 c -7.872894,-3.8649195 -13.737379,7.970848 -5.997608,12.104438 3.134155,1.673863 2.380291,3.285791 -1.541371,3.29579 -3.863138,0.0098 -4.640914,0.808165 -10.4306745,10.706133 -4.6261617,7.908721 -4.7956377,8.315499 -4.0584286,9.741105 1.3349741,2.581555 3.0451783,2.465145 5.691988,-0.38744 2.5758901,-2.77615 2.8923801,-2.524634 3.1945141,2.538697 0.124916,2.093421 0.451223,5.246221 0.725128,7.006221 0.273904,1.76 0.766226,5.876816 1.094048,9.148479 0.635188,6.339175 0.836542,7.051834 2.201748,7.792704 1.076667,0.584285 1.418974,0.600362 2.480897,0.116515 z"
       id="path2719" />
    <path
       style="fill:#ffffff;stroke-width:0.13494"
       d="m 15.720481,64.92102 c -0.653363,-0.285425 -1.305377,-0.910194 -1.560064,-1.494879 -0.31954,-0.733566 -0.590431,-2.466264 -1.002785,-6.414095 -0.330096,-3.1603 -0.693421,-6.182848 -1.273302,-10.592771 -0.146387,-1.113253 -0.361612,-3.268915 -0.478277,-4.790361 -0.338304,-4.411857 -0.504757,-5.130339 -1.187477,-5.125645 -0.4156937,0.0029 -0.4730238,0.04775 -2.0982263,1.642928 -2.7748205,2.723561 -4.0983741,2.958426 -5.380138,0.954706 -0.8078238,-1.262831 -0.7810223,-1.76849 0.198587,-3.746688 1.2356022,-2.495144 6.0257878,-10.642633 7.7748943,-13.224095 0.45258,-0.667952 1.251625,-1.645971 1.775654,-2.173377 1.279452,-1.287695 1.899912,-1.520509 4.458251,-1.672858 2.560882,-0.152501 3.428305,-0.516172 3.428305,-1.43733 0,-0.587224 -0.689721,-1.290039 -1.964013,-2.001301 -2.766805,-1.544326 -4.095439,-4.425835 -3.36319,-7.294012 0.709806,-2.78027 2.893226,-4.9246991 5.427294,-5.3303744 2.660937,-0.4259856 5.789828,1.2810402 6.983158,3.8097947 1.584571,3.3578206 0.324717,6.9798017 -3.127602,8.9916117 -0.533311,0.310782 -1.190234,0.773091 -1.459831,1.027354 -0.403471,0.380523 -0.482577,0.541478 -0.447214,0.909947 0.0771,0.803387 0.782036,1.022982 4.698385,1.463612 3.026476,0.340508 3.885914,1.282516 8.798937,9.644282 4.154117,7.070137 4.964918,8.623901 4.964918,9.51442 0,0.579653 -0.70079,1.899402 -1.277438,2.405704 -0.400396,0.351553 -0.599702,0.426863 -1.129678,0.426863 -1.028175,0 -1.857935,-0.514035 -3.740132,-2.317 -1.523331,-1.459208 -1.725481,-1.608991 -2.120126,-1.570895 -0.695625,0.06715 -0.784823,0.532926 -1.183849,6.181871 -0.08126,1.150361 -0.414246,4.216867 -0.739972,6.814457 -0.325726,2.597591 -0.748983,6.14988 -0.940573,7.893976 -0.408812,3.721545 -0.527032,4.483638 -0.882165,5.686793 -0.415722,1.408428 -1.281055,2.002254 -2.92029,2.00402 -1.808845,0.002 -2.355201,-1.563119 -2.614159,-7.488403 -0.0746,-1.706988 -0.189393,-4.352609 -0.255092,-5.879157 -0.08442,-1.961543 -0.180323,-2.921225 -0.327007,-3.272289 -0.207078,-0.495608 -0.209448,-0.496747 -1.032949,-0.496747 -0.894264,0 -1.264866,0.133383 -1.478211,0.532021 -0.272303,0.508803 -0.401835,2.193474 -0.540249,7.026353 -0.167581,5.851324 -0.286309,7.072372 -0.787079,8.094638 -0.307992,0.628731 -0.475538,0.798886 -1.09619,1.113253 -0.795774,0.403067 -1.46498,0.461568 -2.101105,0.183673 z"
       id="path81" />
  </g>
</svg>
