<?xml version="1.0" encoding="UTF-8" standalone="no"?>
<!-- Created with Inkscape (http://www.inkscape.org/) -->

<svg
   version="1.1"
   id="svg3224"
   width="48.32"
   height="67.199997"
   viewBox="0 0 48.32 67.199997"
   sodipodi:docname="obesidade-3.svg"
   inkscape:version="1.1.1 (3bf5ae0d25, 2021-09-20)"
   xmlns:inkscape="http://www.inkscape.org/namespaces/inkscape"
   xmlns:sodipodi="http://sodipodi.sourceforge.net/DTD/sodipodi-0.dtd"
   xmlns="http://www.w3.org/2000/svg"
   xmlns:svg="http://www.w3.org/2000/svg">
  <defs
     id="defs3228" />
  <sodipodi:namedview
     id="namedview3226"
     pagecolor="#ffffff"
     bordercolor="#666666"
     borderopacity="1.0"
     inkscape:pageshadow="2"
     inkscape:pageopacity="0.0"
     inkscape:pagecheckerboard="0"
     showgrid="false"
     inkscape:zoom="7.7380956"
     inkscape:cx="12.858461"
     inkscape:cy="38.252306"
     inkscape:window-width="1366"
     inkscape:window-height="706"
     inkscape:window-x="-8"
     inkscape:window-y="-8"
     inkscape:window-maximized="1"
     inkscape:current-layer="g3230" />
  <g
     inkscape:groupmode="layer"
     inkscape:label="Image"
     id="g3230">
    <path
       style="fill:#252525;stroke-width:0.32"
       d="M 17.44,66.751194 C 16.184319,66.196922 15.45251,65.345962 14.760589,63.635533 14.450095,62.867988 13.315285,60.439997 12.238791,58.239997 10.036493,53.739226 8.9126214,50.507854 8.1382061,46.44994 7.4189165,42.680881 7.4995443,42.782667 5.2065302,42.748881 1.3409911,42.691921 -1.0267814,38.800785 0.32032438,34.719016 0.70090259,33.565851 8.1447341,20.91679 9.6055526,18.940927 11.208312,16.773079 14.58444,16.09645 18.64,17.130281 19.885719,17.447837 19.777442,16.794676 18.355425,15.413631 12.74308,9.9629906 16.449542,0.33405567 24.16,0.33405567 c 7.69667,0 11.459261,9.48668243 5.948328,14.99761533 -1.547307,1.547307 -1.683341,2.118535 -0.428328,1.79861 4.068038,-1.037012 7.524749,-0.34589 9.136736,1.826764 3.066032,4.132429 9.300822,15.406096 9.438525,17.066614 0.364397,4.394147 -2.053731,7.257353 -5.714528,6.766339 -1.525095,-0.204557 -1.402055,-0.39167 -2.176912,3.310474 -0.990413,4.732012 -2.41904,8.787772 -4.677187,13.278149 -1.145453,2.277757 -2.083536,4.310327 -2.084637,4.516823 -0.0032,0.585673 -1.580899,2.317209 -2.584223,2.836047 -1.82969,0.94617 -4.46387,0.452954 -5.868125,-1.098732 -0.334863,-0.37002 -0.780205,-0.672762 -0.989649,-0.672762 -0.209444,0 -0.654786,0.302742 -0.989649,0.672762 -1.386985,1.532601 -3.748073,1.993433 -5.730351,1.118435 z m 3.633592,-1.927197 c 1.207246,-0.624291 1.540251,-1.513561 1.814412,-4.845273 0.268055,-3.257507 0.571507,-4.298726 1.252817,-4.298726 0.746249,0 1.048867,0.904614 1.284584,3.839999 0.120132,1.496 0.364554,3.190506 0.543161,3.765565 0.800031,2.575856 4.741694,2.582454 5.690276,0.0095 0.213944,-0.580301 1.083929,-2.423091 1.933305,-4.095091 2.704391,-5.323622 4.579059,-11.062342 5.47128,-16.748665 0.453431,-2.889798 0.77016,-3.162563 2.526247,-2.175587 2.759171,1.55073 4.810326,-0.0043 4.810326,-3.646736 0,-1.176569 -0.595818,-2.342317 -4.514186,-8.832248 -5.30656,-8.789169 -4.891206,-8.22356 -6.593011,-8.978087 C 33.881757,18.193069 33.299827,18.22872 30.72,19.098835 29.29799,19.578446 29.252016,19.571118 27.04,18.512256 24.253266,17.178285 24.033646,16.552231 26.04094,15.664309 30.330759,13.766719 31.933581,9.7336114 29.951988,5.8231249 27.510704,1.0054827 20.989181,0.9454478 18.496144,5.717666 c -2.002287,3.8328161 -0.591566,7.859516 3.418742,9.758308 2.437277,1.153996 2.350747,1.712042 -0.474702,3.061422 -2.239816,1.069693 -2.239816,1.069693 -3.75035,0.492815 -1.958842,-0.748089 -3.900599,-0.733089 -5.224932,0.04036 -1.687326,0.985454 -10.5367647,15.792829 -10.5414658,17.63857 -0.00865,3.396483 2.2470937,5.120012 4.7242982,3.60966 1.9257741,-1.174144 2.3428134,-0.787315 2.7612109,2.561197 0.5775046,4.621878 3.3432367,12.797273 5.6482297,16.695945 0.694554,1.174771 1.262825,2.285885 1.262825,2.469142 0,2.310362 2.656528,3.863344 4.753592,2.778912 z"
       id="path3252" />
    <path
       style="fill:#ffffff;stroke-width:0.129231"
       d="m 28.087045,65.073167 c -0.603037,-0.143686 -1.196423,-0.527826 -1.614569,-1.045222 -0.46075,-0.570113 -0.676754,-1.550034 -0.952994,-4.323332 -0.329643,-3.30945 -0.613448,-4.122799 -1.411341,-4.044732 -0.727603,0.07119 -0.87188,0.614446 -1.418194,5.340022 -0.220491,1.907231 -0.447275,2.671989 -0.951892,3.209943 -0.727599,0.775671 -1.982989,1.056645 -3.153787,0.705865 C 17.54827,64.60532 16.422545,63.256329 16.415145,62.316387 16.411966,61.912072 16.228153,61.518793 15.037263,59.368259 12.536633,54.852565 10.274933,48.083711 9.4443798,42.629785 9.1308834,40.571174 8.904842,39.947572 8.3956929,39.736676 8.0580104,39.596803 7.9005104,39.638936 6.7491152,40.177157 5.2932599,40.857699 4.6660133,40.927116 3.792689,40.504347 2.7634071,40.00608 2.0562241,38.61797 2.0301742,37.044752 c -0.00961,-0.580365 0.087793,-0.957153 0.4729079,-1.829369 1.1360067,-2.572851 4.3541371,-8.155305 7.0028081,-12.147692 2.0171978,-3.040555 2.5212698,-3.645155 3.4171858,-4.098668 0.641218,-0.324585 0.837227,-0.359024 2.003077,-0.351938 1.10297,0.0067 1.480545,0.07029 2.577107,0.434012 1.637833,0.543254 1.99531,0.505562 3.862657,-0.407276 1.730377,-0.845881 2.283313,-1.274068 2.283313,-1.768168 0,-0.46461 -0.310511,-0.725151 -1.873846,-1.572297 -3.841243,-2.081505 -5.080717,-5.6443789 -3.265083,-9.3854958 2.163401,-4.4576888 8.171314,-4.92143655 10.869158,-0.8389847 1.810554,2.7397795 1.758996,5.7086785 -0.140842,8.1103115 -0.672494,0.850116 -1.65774,1.592047 -3.140096,2.364624 -1.285641,0.670054 -1.628208,1.065885 -1.336042,1.543777 0.380426,0.622255 3.459478,2.204442 4.508289,2.316607 0.359504,0.03845 0.969501,-0.089 2.003077,-0.418516 1.967842,-0.627366 2.704691,-0.643213 4.015557,-0.08636 1.157632,0.491763 1.492331,0.818549 2.634292,2.571995 1.717673,2.637439 6.829055,11.25301 7.591661,12.796245 0.754152,1.526128 0.781452,1.616548 0.770557,2.552229 -0.01842,1.582003 -0.418032,2.678663 -1.238614,3.399145 -0.829767,0.728545 -1.93972,0.714837 -3.443647,-0.04253 -1.204499,-0.606577 -1.766524,-0.587969 -2.08328,0.06897 -0.119948,0.248769 -0.398686,1.47 -0.619417,2.713846 -0.709637,3.998895 -1.83345,7.96654 -3.255494,11.493598 -0.359971,0.892828 -1.350652,3.07717 -2.201514,4.854093 -0.850862,1.776923 -1.716686,3.58763 -1.924052,4.023791 -0.443005,0.931785 -1.04538,1.445546 -1.978756,1.68766 -0.711807,0.184641 -0.849396,0.18888 -1.454093,0.0448 z"
       id="path81" />
    <path
       style="fill:#ffffff;stroke-width:0.129231"
       d="M 28.087045,65.073167 C 27.483884,64.929451 26.8906,64.545313 26.472177,64.027575 26.015899,63.462996 25.800795,62.496318 25.524619,59.769228 25.27529,57.307237 25.136995,56.586509 24.811072,56.050573 c -0.31672,-0.520805 -0.918224,-0.582213 -1.218214,-0.124371 -0.28208,0.430508 -0.554032,1.763778 -0.717978,3.519949 -0.298772,3.200405 -0.543167,4.182019 -1.199318,4.817063 -1.132771,1.096333 -2.931895,1.087334 -4.190985,-0.02096 C 16.842565,63.67713 16.419645,62.904417 16.415145,62.288303 16.413426,62.05351 16.047293,61.235067 15.490146,60.22061 14.133139,57.74977 13.299378,55.937425 12.361742,53.420404 10.88123,49.44607 10.100385,46.580725 9.4518726,42.742496 8.8920641,39.429266 8.7132298,39.25903 6.7543784,40.174698 5.292973,40.857832 4.6668528,40.927522 3.792689,40.504347 2.7639988,40.006367 2.0575268,38.620509 2.0290836,37.044752 2.0182862,36.446573 2.11737,36.084236 2.5747143,35.049444 3.686246,32.534483 6.8481236,27.068023 9.5051302,23.067691 c 2.0229448,-3.045703 2.5234278,-3.645862 3.4179458,-4.098668 0.641218,-0.324585 0.837227,-0.359024 2.003077,-0.351938 1.10297,0.0067 1.480545,0.07029 2.577107,0.434012 1.629208,0.540394 1.953377,0.506349 3.840233,-0.403292 1.742475,-0.840037 2.305737,-1.272951 2.305737,-1.772152 0,-0.46461 -0.310511,-0.725151 -1.873846,-1.572297 -3.843513,-2.082735 -5.091483,-5.6902326 -3.257466,-9.4163314 1.544844,-3.1386006 5.23411,-4.4875479 8.302775,-3.0358367 2.590366,1.2254392 4.285304,4.4577085 3.811264,7.2681331 -0.38476,2.281122 -1.754612,3.96702 -4.333497,5.333308 -1.752971,0.928721 -1.991503,1.341601 -1.167486,2.020825 0.469627,0.387107 2.595839,1.487965 3.468636,1.795906 0.733247,0.258705 1.101288,0.22738 2.466442,-0.209917 1.922315,-0.615773 2.543529,-0.697182 3.406245,-0.446384 0.982128,0.285512 1.833463,0.732998 2.24399,1.179505 0.581036,0.631958 1.618404,2.265575 4.869897,7.668973 1.732206,2.878615 3.500816,5.945827 3.930244,6.816026 0.752825,1.525533 0.780374,1.616912 0.769484,2.552229 -0.01842,1.582003 -0.418032,2.678663 -1.238614,3.399145 -0.827074,0.72618 -1.939997,0.714698 -3.429453,-0.03538 -0.869239,-0.437741 -1.460701,-0.557142 -1.764431,-0.356195 -0.324326,0.214576 -0.557292,0.985532 -0.946382,3.131868 -1.067412,5.888162 -2.492285,10.177804 -5.365764,16.153845 -0.803139,1.670308 -1.672146,3.485574 -1.931127,4.033924 -0.527201,1.116262 -1.005249,1.567708 -1.966392,1.85697 -0.659057,0.198346 -0.929551,0.208633 -1.556704,0.0592 z"
       id="path157" />
    <path
       style="fill:#ffffff;stroke-width:0.129231"
       d="m 28.107691,65.07608 c -1.032095,-0.251262 -1.877485,-1.053015 -2.118161,-2.008825 -0.07585,-0.301237 -0.227094,-1.297372 -0.336093,-2.213634 -0.108998,-0.916263 -0.261152,-2.189316 -0.338118,-2.829008 -0.17366,-1.443341 -0.488359,-2.220501 -0.945632,-2.33527 -0.932194,-0.233966 -1.080711,0.236443 -1.676646,5.31056 -0.108713,0.92564 -0.289226,1.942508 -0.40114,2.259706 -0.676844,1.918377 -3.158845,2.433693 -4.793114,0.995152 -0.683241,-0.601413 -0.918971,-1.017647 -1.091471,-1.927233 -0.08024,-0.42308 -0.531887,-1.417108 -1.218358,-2.681457 -1.256593,-2.3144 -1.96752,-3.877552 -2.887856,-6.349675 C 10.967233,49.713477 10.029715,46.283141 9.4963267,43.033844 9.0917344,40.569147 8.9830233,40.196906 8.5738093,39.875018 8.1664494,39.554589 7.9345329,39.600229 6.5329895,40.276646 5.3368758,40.853919 4.6368247,40.912986 3.7988701,40.507339 2.8693719,40.057377 2.311262,39.130839 2.0736047,37.643162 c -0.1073863,-0.67221 -0.09451,-0.966925 0.065834,-1.506864 0.565971,-1.90583 4.9605506,-9.625519 7.9818913,-14.021296 1.490778,-2.168948 2.003157,-2.74452 2.801746,-3.147292 0.628098,-0.316784 0.853566,-0.35848 1.938462,-0.35848 1.029794,0 1.452605,0.06992 2.622982,0.433764 1.734762,0.539298 2.019011,0.507943 3.933475,-0.433896 1.741609,-0.856802 2.231235,-1.241958 2.231235,-1.75516 0,-0.436066 -0.386633,-0.74441 -2.09317,-1.669323 -3.607972,-1.955458 -4.812794,-5.601003 -3.062874,-9.2676294 0.77876,-1.6317453 2.356395,-2.9402345 4.179683,-3.4666271 1.004489,-0.2900008 2.677573,-0.2030557 3.721612,0.1934009 2.787291,1.0584255 4.739085,4.5016911 4.237476,7.4755616 -0.38476,2.281122 -1.754612,3.96702 -4.333497,5.333308 -2.322693,1.230559 -2.216156,1.64958 0.794838,3.12618 1.98019,0.97109 2.321136,1.013663 3.941992,0.492214 1.949607,-0.627212 2.570313,-0.709919 3.437007,-0.457964 0.979282,0.284685 1.831585,0.731893 2.247938,1.179505 0.574657,0.6178 1.751661,2.472204 4.949581,7.798204 1.685746,2.807538 3.416531,5.816596 3.846191,6.686795 0.753345,1.525766 0.780798,1.616769 0.769905,2.552229 -0.01842,1.582003 -0.418032,2.678663 -1.238614,3.399145 -0.826344,0.725539 -1.880419,0.715529 -3.44168,-0.03269 -0.936736,-0.448919 -1.453267,-0.55261 -1.765222,-0.354361 -0.295614,0.187864 -0.540095,1.019588 -0.941315,3.202351 -1.082965,5.891681 -2.452519,10.019346 -5.28427,15.92614 -0.772867,1.612134 -1.645215,3.43733 -1.938549,4.05599 -0.593449,1.251619 -1.040874,1.689156 -2.032513,1.987596 -0.655878,0.19739 -0.934163,0.208643 -1.536058,0.06211 z"
       id="path196" />
    <path
       style="fill:#ffffff;stroke-width:0.129231"
       d="m 28.035529,65.07438 c -1.008882,-0.306135 -1.748444,-1.003061 -1.993585,-1.878654 -0.203629,-0.727315 -0.382945,-1.937544 -0.584286,-3.943421 -0.253753,-2.52802 -0.526768,-3.42211 -1.087973,-3.562962 -0.849559,-0.213227 -1.116995,0.479548 -1.494542,3.871516 -0.293756,2.639148 -0.332525,2.880782 -0.594834,3.707367 -0.449118,1.41525 -2.065856,2.135901 -3.696041,1.647485 C 17.56759,64.611108 16.42305,63.258048 16.415145,62.351403 16.413581,62.17237 16.187916,61.590831 15.91366,61.059096 15.639404,60.52736 14.980292,59.249074 14.448966,58.218459 12.270148,53.992193 10.281152,47.896002 9.4981281,43.044347 9.0373321,40.189232 8.8421242,39.73846 8.0665067,39.73846 c -0.2324659,0 -0.9036842,0.232615 -1.4915963,0.516923 -1.2502162,0.60459 -1.9270198,0.66296 -2.7980296,0.241311 C 2.7484376,39.998834 2.0552609,38.628176 2.031145,37.044752 2.017361,36.139723 2.3994691,35.197643 3.9525004,32.307691 6.183904,28.155391 10.184605,21.760222 11.650172,20.002869 c 0.754991,-0.905307 1.649855,-1.350968 2.865964,-1.427314 0.91559,-0.05748 1.474369,0.0447 3.770017,0.689402 0.965968,0.271279 1.407235,0.173724 3.23958,-0.716206 2.176368,-1.057014 2.619686,-1.723721 1.613403,-2.426403 -0.28055,-0.195907 -0.992935,-0.617887 -1.583076,-0.937733 -1.243287,-0.67384 -2.570381,-1.921219 -3.104116,-2.91766 -2.024836,-3.7802118 0.265232,-8.9127482 4.407214,-9.8775157 0.939452,-0.218821 2.598323,-0.099384 3.532965,0.2543693 2.80782,1.0627345 4.77393,4.538456 4.244155,7.5028914 -0.196953,1.102086 -0.843402,2.449261 -1.573057,3.278193 -0.612646,0.696001 -1.804081,1.572642 -2.829376,2.081813 -1.00319,0.498192 -1.550769,0.93887 -1.550769,1.248021 0,0.433664 0.730036,0.987259 2.36496,1.793377 2.020178,0.996072 2.310911,1.034323 3.962252,0.52129 2.038721,-0.633382 2.598963,-0.707229 3.462009,-0.456335 1.668774,0.485126 2.17445,0.897403 3.419297,2.787749 1.282287,1.947198 6.758918,11.149373 7.513781,12.62512 0.849251,1.660274 0.982306,2.206337 0.846742,3.475075 -0.12537,1.173315 -0.532651,2.116128 -1.158319,2.681382 -0.856544,0.773836 -1.893786,0.777959 -3.48818,0.01387 -1.06236,-0.509123 -1.533163,-0.568392 -1.838134,-0.231402 -0.325507,0.35968 -0.445704,0.788667 -0.867413,3.095794 -1.057565,5.785845 -2.468977,10.049798 -5.231273,15.803969 -0.733591,1.528153 -1.601915,3.342712 -1.929608,4.032352 -0.659803,1.388581 -1.077602,1.810678 -2.095441,2.117003 -0.662108,0.199265 -1.09681,0.215594 -1.60822,0.06041 z"
       id="path235" />
  </g>
</svg>
