<?xml version="1.0" encoding="UTF-8" standalone="no"?>
<!-- Created with Inkscape (http://www.inkscape.org/) -->

<svg
   version="1.1"
   id="svg9"
   width="512"
   height="512"
   viewBox="0 0 512 512"
   sodipodi:docname="open-new-tab.svg"
   inkscape:version="1.1.1 (3bf5ae0d25, 2021-09-20)"
   xmlns:inkscape="http://www.inkscape.org/namespaces/inkscape"
   xmlns:sodipodi="http://sodipodi.sourceforge.net/DTD/sodipodi-0.dtd"
   xmlns="http://www.w3.org/2000/svg"
   xmlns:svg="http://www.w3.org/2000/svg">
  <defs
     id="defs13" />
  <sodipodi:namedview
     id="namedview11"
     pagecolor="#ffffff"
     bordercolor="#666666"
     borderopacity="1.0"
     inkscape:pageshadow="2"
     inkscape:pageopacity="0.0"
     inkscape:pagecheckerboard="0"
     showgrid="false"
     inkscape:zoom="0.97265625"
     inkscape:cx="254.97189"
     inkscape:cy="236.46586"
     inkscape:window-width="1366"
     inkscape:window-height="706"
     inkscape:window-x="-8"
     inkscape:window-y="-8"
     inkscape:window-maximized="1"
     inkscape:current-layer="g15" />
  <g
     inkscape:groupmode="layer"
     inkscape:label="Image"
     id="g15">
    <path
       style="fill:#828282;stroke:none;stroke-width:4;fill-opacity:1"
       d="M 464,464 H 48 V 48 h 184 c 18.1076,0 52.1736,6.456 59.3332,-16 C 302.1324,-1.870116 260.5624,0 240,0 H 80 C 61.0448,0 28.81468,-6.12492 12,3.333344 -10.8312,16.17592 4.9799195e-8,77.198 4.9799195e-8,100 v 300 c 0,26.656 -0.370206999799195,53.344 0,80 C 0.18120805,493.048 1.992864,505.592 16,510.668 26.4716,514.46 41.0204,512 52,512 h 76 256 84 c 11.244,0 25.96,2.396 35.332,-5.332 C 517.916,494.644 512,464.796 512,448 V 284 c 0,-18.6616 7.18,-55.9428 -16,-63.3332 C 462.128,209.8676 464,251.4376 464,272 V 464 M 428,48 268,208 c -14.524,14.524 -53.9164,44.7472 -27.3332,66.6668 C 263.9488,293.8644 289.7484,258.2516 304,244 L 464,84 v 36 c 0,9.4 -1.74,20.1824 4.668,28 10.476,12.7836 33.6,10.6016 41.332,-4 4.564,-8.6228 2,-22.554 2,-32 V 40 C 512,29.72716 513.72,17.2218 506.668,8.66664 492.592,-8.40364 448.032,0 428,0 c -17.808,0 -54.874,-7.20044 -67.3332,8 -9.2944,11.33916 -5.562,31.17304 7.3332,38 14.5176,7.686 43.752,2 60,2 z"
       id="path281" />
  </g>
</svg>
