<?xml version="1.0" encoding="UTF-8" standalone="no"?>
<!-- Created with Inkscape (http://www.inkscape.org/) -->

<svg
   version="1.1"
   id="svg3369"
   width="40.32"
   height="67.199997"
   viewBox="0 0 40.32 67.199997"
   sodipodi:docname="sobrepeso.svg"
   inkscape:version="1.1.1 (3bf5ae0d25, 2021-09-20)"
   xmlns:inkscape="http://www.inkscape.org/namespaces/inkscape"
   xmlns:sodipodi="http://sodipodi.sourceforge.net/DTD/sodipodi-0.dtd"
   xmlns="http://www.w3.org/2000/svg"
   xmlns:svg="http://www.w3.org/2000/svg">
  <defs
     id="defs3373" />
  <sodipodi:namedview
     id="namedview3371"
     pagecolor="#ffffff"
     bordercolor="#666666"
     borderopacity="1.0"
     inkscape:pageshadow="2"
     inkscape:pageopacity="0.0"
     inkscape:pagecheckerboard="0"
     showgrid="false"
     inkscape:zoom="7.4107146"
     inkscape:cx="8.2987948"
     inkscape:cy="33.599999"
     inkscape:window-width="1366"
     inkscape:window-height="706"
     inkscape:window-x="-8"
     inkscape:window-y="-8"
     inkscape:window-maximized="1"
     inkscape:current-layer="g3375" />
  <g
     inkscape:groupmode="layer"
     inkscape:label="Image"
     id="g3375">
    <path
       style="fill:#222222;stroke-width:0.32"
       d="M 13.658817,66.736378 C 10.301121,65.538874 10.24,65.267021 10.24,51.530276 c 0,-6.341654 -0.11692,-11.530278 -0.2598214,-11.530278 -0.1429015,0 -0.5628557,0.409875 -0.9332317,0.910835 C 6.474456,44.390315 0.79787261,42.925179 0.15150725,38.614907 -0.12204523,36.790728 -0.02974044,36.592114 5.7539478,26.559999 11.027061,17.413504 11.465224,16.785338 13.04,16.114464 14.288448,15.582609 14.318525,15.375643 13.288053,14.407565 9.3205133,10.680255 11.660582,2.3897145 17.214313,0.49736836 25.455812,-2.3107927 32.57537,7.4759744 27.206075,14.232356 c -1.178255,1.482641 -1.183607,1.346383 0.07393,1.882108 1.599432,0.681378 2.052186,1.334014 7.551078,10.884738 5.307799,9.218822 5.68993,10.068998 5.347108,11.896393 -0.765597,4.080995 -6.687703,5.355209 -8.936681,1.922838 C 30.152283,39.156069 30.08,39.822689 30.08,51.530276 c 0,12.510022 -0.05949,12.994931 -1.758254,14.331177 -2.220651,1.746765 -4.941155,1.49384 -6.981627,-0.649075 -1.219881,-1.281126 -1.219881,-1.281126 -2.310335,-0.0072 -0.778037,0.908963 -1.500545,1.377213 -2.521822,1.634374 -1.679245,0.422839 -1.339702,0.435136 -2.849145,-0.103197 z m 2.623155,-1.811075 C 18.139562,64.277744 18.24,63.712957 18.24,53.914852 c 0,-9.858582 0.04008,-10.074854 1.867259,-10.074854 2.000459,0 1.972741,-0.137818 1.972741,9.808944 0,9.894604 0.06961,10.327465 1.792326,11.144946 0.92275,0.437875 1.203008,0.446483 2.115662,0.06499 2.089,-0.873209 1.99631,-0.196057 2.172012,-15.867743 0.16,-14.271139 0.16,-14.271139 0.96,-14.271139 0.661048,0 1.061825,0.444647 2.307425,2.56 2.034639,3.455347 3.349215,4.24632 5.343394,3.215091 1.229315,-0.635705 1.853639,-2.192163 1.381283,-3.44358 C 37.955018,36.529376 35.524778,32.16887 32.751565,27.361497 27.181336,17.705482 26.961279,17.452188 24.409773,17.759784 21.102231,18.158525 20.243806,16.491603 23.04,15.099905 29.593968,11.837919 27.487538,1.9642514 20.229722,1.9270278 12.435707,1.8870541 10.719718,12.43182 18.024627,15.477355 c 2.350837,0.980102 0.741484,2.614967 -2.237589,2.273059 -2.387028,-0.273959 -2.831348,0.256298 -8.5884476,10.249585 -5.5545272,9.641657 -5.6014105,9.750806 -4.8152668,11.210588 1.6344543,3.034998 4.0347846,2.321082 6.5474473,-1.947366 1.2250701,-2.081117 1.6399211,-2.543223 2.2831601,-2.543223 0.786069,0 0.786069,0 0.946069,14.271139 0.181742,16.210454 -0.03351,15.070054 3.072249,16.276335 0.01774,0.0069 0.490112,-0.147088 1.049723,-0.342169 z"
       id="path3477" />
    <path
       style="fill:#ffffff;stroke-width:0.13494"
       d="M 14.520391,64.924161 C 13.587717,64.58036 12.970431,63.964138 12.772903,63.179683 12.456406,61.92276 12.348191,59.080398 12.209287,48.375901 12.067422,37.443215 11.974716,35.17886 11.653118,34.791357 11.430944,34.523654 10.776088,34.654495 10.354141,35.050892 10.17865,35.215758 9.5403367,36.138393 8.9356662,37.101194 6.7429802,40.592548 5.0601845,41.662342 3.5646793,40.515661 3.247854,40.272734 2.7889943,39.715948 2.536017,39.267468 2.1650598,38.609832 2.0900075,38.350297 2.1362541,37.885067 2.2124789,37.11826 3.2562529,35.038078 5.7421152,30.698794 10.375383,22.611029 11.957218,20.046913 13.012602,18.913517 c 0.939946,-1.009426 1.167692,-1.089633 3.112698,-1.096218 1.881422,-0.0064 2.583355,-0.220602 2.960429,-0.903532 0.327557,-0.593251 0.05905,-0.922796 -1.359731,-1.6688 -1.652791,-0.869051 -2.89152,-2.067371 -3.543573,-3.427977 -1.968661,-4.1079055 0.217922,-8.7593028 4.534777,-9.6465839 1.276581,-0.2623868 1.670822,-0.2636926 2.870805,-0.00951 1.349504,0.2858558 2.30964,0.8029692 3.273263,1.7629263 2.203867,2.1954819 2.672485,5.8129687 1.088553,8.4030706 -0.504624,0.825179 -1.597192,1.892796 -2.460859,2.40466 -2.004072,1.187742 -2.396913,1.623959 -2.102524,2.334677 0.260617,0.629185 0.682768,0.742714 2.767776,0.744341 1.743837,0.0014 1.928166,0.02573 2.39629,0.316781 0.555142,0.345154 1.326608,1.291299 2.328544,2.855779 1.555911,2.429487 8.19474,14.034935 8.99281,15.720481 0.210841,0.445301 0.383057,0.961446 0.3827,1.146988 -0.0028,1.482534 -1.430524,2.957346 -2.870944,2.965711 -1.232026,0.0072 -2.151127,-0.840053 -3.883758,-3.579958 -1.370027,-2.1665 -1.67824,-2.50599 -2.302064,-2.535674 -0.769722,-0.03662 -0.817168,0.215722 -0.945884,5.030723 -0.06262,2.342426 -0.175495,8.205944 -0.250836,13.03004 -0.137784,8.822395 -0.21326,10.110795 -0.643861,10.99093 -0.240851,0.492292 -0.944003,0.934915 -1.932851,1.216696 -0.623257,0.177604 -1.518727,-0.11058 -2.213336,-0.712305 -0.887813,-0.769092 -0.89865,-0.876714 -1.021602,-10.145923 -0.06307,-4.754856 -0.169696,-8.544777 -0.252459,-8.973494 -0.20473,-1.06051 -0.571329,-1.349397 -1.712399,-1.349397 -0.483149,0 -1.001049,0.06561 -1.150886,0.145801 -0.752659,0.402811 -0.91484,2.231627 -0.92046,10.3795 -0.0043,6.275046 -0.129875,8.474485 -0.536158,9.392957 -0.289877,0.655315 -0.606725,0.895767 -1.633919,1.239963 -0.719136,0.240971 -0.750612,0.240498 -1.462752,-0.02201 z"
       id="path3703" />
    <path
       style="fill:none;stroke-width:0.13494"
       d="M 14.520391,64.924161 C 13.567628,64.572956 12.971064,63.966653 12.762231,63.1373 12.449736,61.896271 12.358145,59.462511 12.212125,48.519886 12.064882,37.48559 11.971159,35.174574 11.655482,34.794206 11.430947,34.523658 10.778334,34.652384 10.354141,35.050892 10.17865,35.215758 9.5403367,36.138393 8.9356662,37.101194 6.7744782,40.542395 5.0957509,41.634855 3.616092,40.562995 2.9703469,40.09522 2.2184049,38.926246 2.1275543,38.248905 2.0061234,37.343569 2.9630469,35.466466 7.7994548,27.12289 10.875729,21.815826 12.05846,19.949951 12.970922,18.964383 c 0.963747,-1.040963 1.522267,-1.263015 2.879119,-1.144655 1.370452,0.119547 2.491939,-0.112034 2.999228,-0.619322 0.208805,-0.208806 0.379646,-0.494403 0.379646,-0.634661 0,-0.370532 -0.601527,-0.872314 -1.754217,-1.463333 -2.82066,-1.446236 -4.402108,-4.433557 -3.935599,-7.4342619 0.32289,-2.0769089 1.599852,-3.9379725 3.332461,-4.8567802 0.803067,-0.4258689 2.486726,-0.856848 3.329979,-0.8524004 0.761144,0.00401 2.295447,0.3853356 3.073215,0.7637879 1.070723,0.521001 2.325862,1.8256644 2.891154,3.0052334 1.667862,3.4802438 0.400993,7.3047402 -3.060274,9.2385242 -1.580571,0.883052 -2.090676,1.583163 -1.61808,2.220784 0.427156,0.576312 0.99119,0.704158 2.734916,0.619899 1.44635,-0.06989 1.594089,-0.05333 2.159036,0.24194 1.134029,0.592709 2.512487,2.706072 7.73454,11.858088 3.369076,5.904547 4.140131,7.403656 4.136411,8.042125 -0.0083,1.419303 -1.473208,2.869924 -2.898242,2.869924 -1.204517,0 -2.136455,-0.866308 -3.854357,-3.582921 -1.370027,-2.1665 -1.67824,-2.50599 -2.302064,-2.535674 -0.363124,-0.01728 -0.478549,0.04788 -0.628618,0.354864 -0.246199,0.503626 -0.391427,4.978213 -0.498019,15.344454 -0.118051,11.480582 -0.266312,13.274271 -1.150676,13.921026 -0.185542,0.135691 -0.692865,0.371135 -1.127384,0.52321 -0.747039,0.261452 -0.825104,0.264851 -1.434465,0.06245 -0.354437,-0.117726 -0.869398,-0.408927 -1.144357,-0.647116 -0.890173,-0.771125 -0.901907,-0.886333 -1.019874,-10.013791 -0.05755,-4.453012 -0.148989,-8.4 -0.20319,-8.771084 -0.11813,-0.808785 -0.377874,-1.358966 -0.730726,-1.547808 -0.342234,-0.183158 -1.840535,-0.178456 -2.186805,0.0069 -0.750868,0.401853 -0.912739,2.24069 -0.919633,10.446969 -0.0052,6.211806 -0.131763,8.409417 -0.536985,9.325488 -0.289877,0.655315 -0.606725,0.895767 -1.633919,1.239963 -0.719136,0.240971 -0.750612,0.240498 -1.462752,-0.02201 z"
       id="path3853" />
    <path
       style="fill:none;stroke-width:0.13494"
       d="M 14.520391,64.924161 C 13.567628,64.572956 12.971064,63.966653 12.762231,63.1373 12.449736,61.896271 12.358145,59.462511 12.212125,48.519886 12.064882,37.48559 11.971159,35.174574 11.655482,34.794206 11.430947,34.523658 10.778334,34.652384 10.354141,35.050892 10.17865,35.215758 9.5403367,36.138393 8.9356662,37.101194 6.7744782,40.542395 5.0957509,41.634855 3.616092,40.562995 2.9703469,40.09522 2.2184049,38.926246 2.1275543,38.248905 2.0061234,37.343569 2.9630469,35.466466 7.7994548,27.12289 10.875729,21.815826 12.05846,19.949951 12.970922,18.964383 c 0.963747,-1.040963 1.522267,-1.263015 2.879119,-1.144655 1.370452,0.119547 2.491939,-0.112034 2.999228,-0.619322 0.208805,-0.208806 0.379646,-0.494403 0.379646,-0.634661 0,-0.370532 -0.601527,-0.872314 -1.754217,-1.463333 -2.82066,-1.446236 -4.402108,-4.433557 -3.935599,-7.4342619 0.32289,-2.0769089 1.599852,-3.9379725 3.332461,-4.8567802 0.803067,-0.4258689 2.486726,-0.856848 3.329979,-0.8524004 0.761144,0.00401 2.295447,0.3853356 3.073215,0.7637879 1.070723,0.521001 2.325862,1.8256644 2.891154,3.0052334 1.667862,3.4802438 0.400993,7.3047402 -3.060274,9.2385242 -1.580571,0.883052 -2.090676,1.583163 -1.61808,2.220784 0.427156,0.576312 0.99119,0.704158 2.734916,0.619899 1.44635,-0.06989 1.594089,-0.05333 2.159036,0.24194 1.134029,0.592709 2.512487,2.706072 7.73454,11.858088 3.369076,5.904547 4.140131,7.403656 4.136411,8.042125 -0.0083,1.419303 -1.473208,2.869924 -2.898242,2.869924 -1.204517,0 -2.136455,-0.866308 -3.854357,-3.582921 -1.370027,-2.1665 -1.67824,-2.50599 -2.302064,-2.535674 -0.363124,-0.01728 -0.478549,0.04788 -0.628618,0.354864 -0.246199,0.503626 -0.391427,4.978213 -0.498019,15.344454 -0.118051,11.480582 -0.266312,13.274271 -1.150676,13.921026 -0.185542,0.135691 -0.692865,0.371135 -1.127384,0.52321 -0.747039,0.261452 -0.825104,0.264851 -1.434465,0.06245 -0.354437,-0.117726 -0.869398,-0.408927 -1.144357,-0.647116 -0.890173,-0.771125 -0.901907,-0.886333 -1.019874,-10.013791 -0.05755,-4.453012 -0.148989,-8.4 -0.20319,-8.771084 -0.11813,-0.808785 -0.377874,-1.358966 -0.730726,-1.547808 -0.342234,-0.183158 -1.840535,-0.178456 -2.186805,0.0069 -0.750868,0.401853 -0.912739,2.24069 -0.919633,10.446969 -0.0052,6.211806 -0.131763,8.409417 -0.536985,9.325488 -0.289877,0.655315 -0.606725,0.895767 -1.633919,1.239963 -0.719136,0.240971 -0.750612,0.240498 -1.462752,-0.02201 z"
       id="path4262" />
    <path
       style="fill:#ffffff;stroke-width:0.13494"
       d="M 14.520391,64.924161 C 13.567628,64.572956 12.971064,63.966653 12.762231,63.1373 12.449736,61.896271 12.358145,59.462511 12.212125,48.519886 12.064882,37.48559 11.971159,35.174574 11.655482,34.794206 11.430947,34.523658 10.778334,34.652384 10.354141,35.050892 10.17865,35.215758 9.5403367,36.138393 8.9356662,37.101194 6.7744782,40.542395 5.0957509,41.634855 3.616092,40.562995 2.9703469,40.09522 2.2184049,38.926246 2.1275543,38.248905 2.0061234,37.343569 2.9630469,35.466466 7.7994548,27.12289 10.875729,21.815826 12.05846,19.949951 12.970922,18.964383 c 0.963747,-1.040963 1.522267,-1.263015 2.879119,-1.144655 1.370452,0.119547 2.491939,-0.112034 2.999228,-0.619322 0.208805,-0.208806 0.379646,-0.494403 0.379646,-0.634661 0,-0.370532 -0.601527,-0.872314 -1.754217,-1.463333 -2.82066,-1.446236 -4.402108,-4.433557 -3.935599,-7.4342619 0.32289,-2.0769089 1.599852,-3.9379725 3.332461,-4.8567802 0.803067,-0.4258689 2.486726,-0.856848 3.329979,-0.8524004 0.761144,0.00401 2.295447,0.3853356 3.073215,0.7637879 1.070723,0.521001 2.325862,1.8256644 2.891154,3.0052334 1.667862,3.4802438 0.400993,7.3047402 -3.060274,9.2385242 -1.580571,0.883052 -2.090676,1.583163 -1.61808,2.220784 0.427156,0.576312 0.99119,0.704158 2.734916,0.619899 1.44635,-0.06989 1.594089,-0.05333 2.159036,0.24194 1.134029,0.592709 2.512487,2.706072 7.73454,11.858088 3.369076,5.904547 4.140131,7.403656 4.136411,8.042125 -0.0083,1.419303 -1.473208,2.869924 -2.898242,2.869924 -1.204517,0 -2.136455,-0.866308 -3.854357,-3.582921 -1.370027,-2.1665 -1.67824,-2.50599 -2.302064,-2.535674 -0.363124,-0.01728 -0.478549,0.04788 -0.628618,0.354864 -0.246199,0.503626 -0.391427,4.978213 -0.498019,15.344454 -0.118051,11.480582 -0.266312,13.274271 -1.150676,13.921026 -0.185542,0.135691 -0.692865,0.371135 -1.127384,0.52321 -0.747039,0.261452 -0.825104,0.264851 -1.434465,0.06245 -0.354437,-0.117726 -0.869398,-0.408927 -1.144357,-0.647116 -0.890173,-0.771125 -0.901907,-0.886333 -1.019874,-10.013791 -0.05755,-4.453012 -0.148989,-8.4 -0.20319,-8.771084 -0.11813,-0.808785 -0.377874,-1.358966 -0.730726,-1.547808 -0.342234,-0.183158 -1.840535,-0.178456 -2.186805,0.0069 -0.750868,0.401853 -0.912739,2.24069 -0.919633,10.446969 -0.0052,6.211806 -0.131763,8.409417 -0.536985,9.325488 -0.289877,0.655315 -0.606725,0.895767 -1.633919,1.239963 -0.719136,0.240971 -0.750612,0.240498 -1.462752,-0.02201 z"
       id="path4301" />
    <path
       style="fill:#ffffff;stroke-width:0.13494"
       d="M 14.517719,64.928278 C 13.55901,64.563997 12.970221,63.963305 12.762231,63.1373 12.450258,61.898342 12.35788,59.46878 12.213794,48.713251 12.134254,42.775902 12.01159,37.253639 11.941206,36.441556 11.796707,34.774339 11.66926,34.531994 11.012811,34.676174 10.507833,34.787085 10.045125,35.342632 8.7651744,37.374784 7.7533849,38.981181 6.4955914,40.362662 5.7145462,40.7254 4.9584891,41.076532 4.2492353,41.021642 3.616092,40.562995 2.9704555,40.095299 2.2184093,38.92628 2.1275934,38.249195 2.0069675,37.349862 2.7725404,35.831434 7.3291297,27.932529 c 3.2375513,-5.612337 4.6494353,-7.869422 5.5392683,-8.855261 1.057254,-1.171324 1.262054,-1.250666 3.256902,-1.261776 1.534873,-0.0085 1.741162,-0.03959 2.291093,-0.344811 1.268575,-0.70407 1.026855,-1.348001 -0.873947,-2.328144 -2.87811,-1.48409 -4.450777,-4.383688 -4.011658,-7.3964792 0.313045,-2.1478007 1.561055,-3.9914164 3.340468,-4.9346879 0.803412,-0.425891 2.487136,-0.8568474 3.330283,-0.8524004 0.761144,0.00401 2.295447,0.3853356 3.073215,0.7637879 1.088489,0.5296457 2.332729,1.831026 2.901539,3.0347894 1.63067,3.450955 0.428287,7.1472922 -2.985172,9.1769412 -1.131621,0.672864 -1.715925,1.204822 -1.864884,1.697814 -0.06941,0.229707 0.0024,0.398993 0.291955,0.688577 0.482073,0.482075 1.259287,0.612703 2.926336,0.491839 1.131927,-0.08207 1.276912,-0.06355 1.836194,0.234512 0.3963,0.211202 0.876456,0.671855 1.382293,1.326143 0.883148,1.142335 3.359446,5.255551 6.651172,11.047825 3.126344,5.501263 3.841904,6.904718 3.83827,7.528153 -0.0083,1.419303 -1.473208,2.869924 -2.898242,2.869924 -1.178963,0 -2.123238,-0.845447 -3.657822,-3.274997 -1.381431,-2.187077 -1.655132,-2.534011 -2.168261,-2.74841 -0.532529,-0.222505 -0.832609,-0.121227 -1.008051,0.340223 -0.185314,0.487413 -0.350279,6.19258 -0.449159,15.533786 -0.118554,11.19984 -0.270931,13.007941 -1.150441,13.651147 -0.185542,0.135691 -0.692865,0.371135 -1.127384,0.52321 -0.756267,0.264681 -0.818793,0.266947 -1.462917,0.053 C 23.510194,64.624882 22.802635,64.028536 22.611471,63.448675 22.299084,62.501106 22.202009,60.673437 22.177976,55.287143 22.135443,45.75499 22.022261,44.33458 21.273306,43.933751 21.123469,43.85356 20.60891,43.78795 20.129844,43.78795 c -1.851071,0 -1.833783,-0.09009 -1.980911,10.322891 -0.06565,4.646055 -0.174298,8.368749 -0.254956,8.7355 -0.285276,1.297152 -0.614978,1.660581 -1.910983,2.106472 -0.726618,0.249993 -0.743522,0.24971 -1.465275,-0.02454 z"
       id="path4636" />
    <path
       style="fill:#ffffff;stroke-width:0.13494"
       d="M 14.236144,64.787623 C 13.32112,64.356118 12.956797,63.919672 12.736694,62.991344 12.453925,61.798707 12.302669,57.756418 12.210003,48.915661 12.103715,38.775173 11.972858,35.389184 11.669349,34.925972 11.491246,34.654152 11.3778,34.605625 11.087892,34.677248 10.555402,34.808805 10.056852,35.346127 9.2077428,36.703613 8.1592065,38.379926 7.887899,38.746155 7.025679,39.649103 6.0380961,40.683337 5.4166963,41.003353 4.556526,40.920701 3.8358761,40.851457 3.2255,40.388468 2.6292017,39.458768 1.6657961,37.956704 1.8504074,37.466126 6.3004665,29.702917 11.222196,21.116872 12.706021,18.847385 13.872004,18.122375 c 0.447619,-0.278329 0.673002,-0.311635 2.185827,-0.323002 0.98846,-0.0074 1.854335,-0.08098 2.091566,-0.177663 0.937117,-0.381934 1.273724,-1.099793 0.757674,-1.615843 -0.139905,-0.139906 -0.67123,-0.473671 -1.180722,-0.741701 -1.932931,-1.016863 -3.145676,-2.311534 -3.840415,-4.099853 -0.416709,-1.072643 -0.511741,-3.1940554 -0.192306,-4.292874 0.361889,-1.2448531 0.850769,-2.0772183 1.740682,-2.9636805 0.99018,-0.9863381 1.960771,-1.4862039 3.458832,-1.7813379 0.94057,-0.1853023 1.284039,-0.1947056 2.205618,-0.060384 3.431345,0.5001235 5.754251,3.2382374 5.754251,6.7827952 0,1.4634482 -0.337472,2.6247152 -1.090441,3.7522962 -0.663389,0.993431 -1.322237,1.575713 -2.78427,2.460703 -1.6064,0.972377 -1.999345,1.640157 -1.33331,2.265864 0.47019,0.441722 1.307083,0.585637 2.79778,0.481118 1.08262,-0.07591 1.382667,-0.05225 1.790251,0.141163 0.614447,0.291574 1.497608,1.2674 2.426593,2.6812 1.331278,2.026037 6.982409,11.825253 8.800266,15.259899 0.628134,1.186791 0.72807,1.47842 0.72807,2.124607 0,1.033439 -0.581042,1.911465 -1.609738,2.432509 -1.826098,0.924936 -2.946913,0.214523 -5.121254,-3.246034 -1.366076,-2.174171 -1.748411,-2.545876 -2.541369,-2.470709 -0.5535,0.05247 -0.659259,1.697653 -0.777369,12.092646 -0.112043,9.861099 -0.286216,15.15578 -0.53262,16.191072 -0.230928,0.970267 -0.642592,1.391986 -1.770878,1.814131 -0.897841,0.335926 -1.195306,0.299811 -2.184659,-0.265232 -1.368321,-0.781481 -1.385808,-0.907033 -1.521646,-10.925513 -0.06475,-4.775351 -0.168447,-8.387889 -0.24984,-8.703614 -0.216122,-0.838343 -0.672074,-1.146988 -1.694411,-1.146988 -1.078756,0 -1.476975,0.277529 -1.696258,1.182163 -0.09981,0.41176 -0.196684,3.450916 -0.27201,8.533499 -0.111645,7.533268 -0.21996,9.511051 -0.556702,10.165048 -0.286376,0.556181 -0.703884,0.898243 -1.426243,1.168512 -0.924119,0.345757 -1.171564,0.339617 -1.996809,-0.04955 z"
       id="path231" />
    <path
       style="fill:#ffffff;stroke-width:0.13494"
       d="M 14.236144,64.787623 C 13.320847,64.355989 12.956621,63.919461 12.737379,62.991344 12.450445,61.776667 12.303572,57.929011 12.21038,49.18554 12.107406,39.524287 11.967724,35.581654 11.709764,35.055318 11.358981,34.33959 10.403837,34.766201 9.6810247,35.961444 8.1372456,38.51424 6.7473355,40.190942 5.7448793,40.709768 4.9141542,41.139714 4.044524,41.002157 3.3581154,40.332232 2.6211962,39.61301 2.1424959,38.755496 2.1395535,38.149375 2.1347459,37.159004 2.7894457,35.82968 6.2977016,29.706544 11.229208,21.099335 12.698646,18.85197 13.872004,18.122375 c 0.445537,-0.277034 0.68004,-0.312434 2.185827,-0.329965 1.751261,-0.02039 2.286288,-0.138879 2.8,-0.620102 0.627985,-0.588269 0.246054,-1.191544 -1.250567,-1.975325 -1.81035,-0.94808 -3.041167,-2.281871 -3.72133,-4.03267 -0.416709,-1.072643 -0.511741,-3.1940554 -0.192306,-4.292874 0.361889,-1.2448531 0.850769,-2.0772183 1.740682,-2.9636805 0.99018,-0.9863381 1.960771,-1.4862039 3.458832,-1.7813379 0.94057,-0.1853023 1.284039,-0.1947056 2.205618,-0.060384 3.431345,0.5001235 5.754251,3.2382374 5.754251,6.7827952 0,1.4634482 -0.337472,2.6247152 -1.090441,3.7522962 -0.648455,0.971069 -1.336059,1.589993 -2.613473,2.352433 -1.15187,0.687508 -1.828616,1.343105 -1.828616,1.771471 0,0.398153 0.693928,1.008761 1.191077,1.048064 0.198402,0.01568 1.093399,0.03086 1.988882,0.03374 1.581587,0.0051 1.642754,0.01632 2.138728,0.393408 1.130819,0.859766 2.521574,3.024742 7.162086,11.149157 3.996077,6.996165 4.386696,7.76365 4.386696,8.618942 0,1.179288 -0.588364,2.041172 -1.754217,2.569719 -1.710925,0.775659 -2.869295,0.01884 -4.884075,-3.190992 -1.244443,-1.982575 -1.808974,-2.600079 -2.37703,-2.600079 -0.285251,0 -0.468337,0.08851 -0.567902,0.274556 -0.232864,0.43511 -0.37775,4.206726 -0.468943,12.207372 -0.109034,9.565768 -0.283082,14.743578 -0.530646,15.786252 -0.230375,0.970277 -0.641801,1.391862 -1.770415,1.814131 -0.897841,0.335926 -1.195306,0.299811 -2.184659,-0.265232 -1.363629,-0.778801 -1.381004,-0.903328 -1.524453,-10.925513 -0.06496,-4.538789 -0.176647,-8.403528 -0.251516,-8.703614 -0.07407,-0.296868 -0.300304,-0.682636 -0.502751,-0.857263 -0.324772,-0.280142 -0.475289,-0.311448 -1.279081,-0.26603 -1.094519,0.06185 -1.392428,0.279519 -1.602225,1.170689 -0.08957,0.380463 -0.196299,3.733531 -0.271239,8.521278 -0.06796,4.341687 -0.187567,8.337787 -0.265795,8.880225 -0.223612,1.550534 -0.629574,2.109672 -1.818006,2.503963 -0.874073,0.289995 -1.096339,0.278269 -1.898853,-0.100177 z"
       id="path381" />
  </g>
</svg>
